<?xml version="1.0" encoding="utf-8"?>
<!-- Generator: Adobe Illustrator 24.1.2, SVG Export Plug-In . SVG Version: 6.00 Build 0)  -->
<svg version="1.1" id="Ebene_1" xmlns="http://www.w3.org/2000/svg" xmlns:xlink="http://www.w3.org/1999/xlink" x="0px" y="0px"
	 viewBox="0 0 283.5 283.5" style="enable-background:new 0 0 283.5 283.5;" xml:space="preserve">
<style type="text/css">
	.st0{fill:#990218;}
	.st1{fill:#FAFAFA;}
	.st2{fill:url(#SVGID_1_);}
	.st3{fill:#42A5F5;}
	.st4{fill:#E36826;}
	.st5{fill:#DF6026;}
	.st6{fill:#2B56A5;}
	.st7{fill:#2F5EAB;}
	.st8{fill:#C22034;}
	.st9{fill:#DC1E3A;}
	.st10{fill:#FCF9F6;}
	.st11{fill:#FBF9FC;}
	.st12{fill:#FBF8FA;}
</style>
<g transform="translate(0,-197)">
	<circle class="st0" cx="141.7" cy="338.7" r="141.7"/>
	<path class="st1" d="M129.4,285.7H89.6c-7.4,0-13.3,5.9-13.3,13.3v79.6c0,7.3,5.9,13.3,13.3,13.3l0,0h106.2
		c7.3,0,13.3-5.9,13.3-13.3l0,0v-66.4c0-7.4-6-13.3-13.3-13.3h-53.1L129.4,285.7z"/>
	
		<linearGradient id="SVGID_1_" gradientUnits="userSpaceOnUse" x1="358.0549" y1="257.9369" x2="452.3249" y2="100.5369" gradientTransform="matrix(0.75 0 0 -0.75 -135.0051 498.9932)">
		<stop  offset="0" style="stop-color:#000000;stop-opacity:0.2043"/>
		<stop  offset="1" style="stop-color:#36343D;stop-opacity:1.956500e-02"/>
	</linearGradient>
	<path class="st2" d="M206,303.8c1.9,2.3,3,5.2,3,8.4v66.4c0,7.3-5.9,13.3-13.3,13.3c0,0,0,0,0,0H89.6c-3.3,0-6.5-1.3-9-3.5l0,0
		l89.1,89.1c52.4-10.6,94.4-49.9,108.5-101.4L206,303.8L206,303.8z"/>
	<g>
		<polygon class="st3" points="141.7,338.7 141.7,338.7 141.7,338.7 141.7,338.7 		"/>
		<polygon class="st3" points="141.7,338.7 141.7,338.7 141.7,338.7 141.7,338.7 		"/>
		<polygon class="st3" points="141.7,338.7 141.7,338.7 141.7,338.7 141.7,338.7 		"/>
		<polygon class="st3" points="141.7,338.7 141.7,338.7 141.7,338.7 141.7,338.7 		"/>
		<polygon class="st3" points="141.7,338.7 141.7,338.7 141.7,338.7 141.7,338.7 		"/>
	</g>
	<path class="st4" d="M142.1,385.7c-0.7,0.6-1.1-0.1-1.6-0.3c-9.3-4.8-18.6-9.7-27.9-14.6c-0.8-0.3-1.4-1.1-1.4-2
		c-0.5-3.8-1-7.6-1.5-11.4c-0.2-1.2,0.7-1.1,1.3-1.2c4-0.7,7.9-1.3,11.9-1.9c6.3-1,12.6-1.9,18.9-2.9c0,4.3,0,8.6,0,12.9
		c-1.7,0.5-3.3,1-5,1.4c-0.7,0.2-1.2,0.4-0.4,1.1c1.9,1.8,3.4,3.9,5.4,5.5c0,3.8,0,7.6,0,11.4C141.7,384.5,141.5,385.2,142.1,385.7z
		"/>
	<path class="st5" d="M141.7,364.4c0-4.3,0-8.6,0-12.9c3.9,0.3,7.7,1.2,11.6,1.8c6.2,1,12.3,2.1,18.5,3.1c1.4,0.2,1.8,0.7,1.6,2.2
		c-0.5,3.2-0.8,6.4-1.2,9.7c0,0.7-0.4,1.4-1.1,1.7c-9.6,5.2-19.1,10.4-28.7,15.7c-0.1,0-0.2,0.1-0.3,0.1c-0.6-0.5-0.4-1.2-0.4-1.8
		c0-3.8,0-7.6,0-11.4l8.1-9.5l-0.4-0.4L141.7,364.4z"/>
	<path class="st6" d="M142.2,313c6.2,2.2,12.4,4.2,18.5,6.5c2,0.8,4.2,0.8,6.3,0.2c7.1-2,12.4-6.6,17.1-12.1c1.2-1.5,2.3-3,3.8-4.8
		c0.5,8-0.9,14.9-5.5,21.1c-0.7,1-1.5,1.8-2.3,2.7c-2.6,3-6.3,4.7-10.2,4.6c-8.5,0.3-16.9,1-25.4,1.6c-0.9,0.1-1.8,0-2.7,0.1
		c0-6,0-11.9,0-17.9C141.7,314.3,141.4,313.5,142.2,313z"/>
	<path class="st7" d="M142.2,313c-0.8,0.5-0.5,1.3-0.5,2c0,6,0,11.9,0,17.9c-8.1-0.5-16.2-1-24.3-1.5c-2.4-0.2-4.8-0.4-7.2-0.5
		c-0.7,0-1.4-0.3-2-0.7c-8.3-5.5-11.9-13.4-12.4-23.1c-0.2-1.4-0.1-2.8,0.3-4.1c1.6,2.3,3.3,4.4,5.1,6.5c4.3,4.6,9.1,8.4,15.3,10.2
		c2,0.6,4.2,0.6,6.1-0.2c5.8-2.2,11.8-4.2,17.7-6.3C140.9,313,141.5,312.4,142.2,313z"/>
	<path class="st8" d="M138.3,333.4c11.5-0.8,23.1-1.5,34.6-2.4c1.3-0.1,1.7,0.1,1.5,1.5c-0.9,7.4-1.8,14.8-2.5,22.2
		c-0.2,1.6-0.9,1.4-2,1.2c-10.5-1.8-21-3.6-31.6-5.4C138.3,344.8,138.3,339.1,138.3,333.4z M147.8,336.9l-0.1,0.3l13.5,8.3
		c0.4-2.7,0.7-5.2,1-7.7c0.1-0.7-0.1-0.9-0.8-0.9C156.9,336.9,152.3,336.9,147.8,336.9z"/>
	<path class="st9" d="M141.7,334.4c0,5.2,0,10.3,0,15.5c-6.9,1.1-13.8,2.2-20.6,3.3c-2.8,0.4-5.6,0.9-8.4,1.3
		c-0.9,0.2-1.3,0.1-1.4-1c-0.7-6.7-1.5-13.4-2.3-20.1c-0.1-1.1,0.2-1.3,1.2-1.2C120.7,333,131.2,333.7,141.7,334.4z M121.5,345.6
		l13.6-8.4c-4.6-0.3-9.1-0.3-13.5-0.3c-0.7,0-1.3-0.1-1.1,1C120.8,340.4,121.1,342.9,121.5,345.6z"/>
	<path class="st10" d="M141.7,364.4l7.8-1.9l0.4,0.4l-8.1,9.5c-2-1.6-3.6-3.7-5.4-5.5c-0.8-0.7-0.3-0.9,0.4-1.1
		C138.4,365.4,140,364.9,141.7,364.4z"/>
	<path class="st11" d="M145,336.2c5,0,10.1,0,15.1,0c0.8,0,1,0.3,0.9,1c-0.4,2.7-0.7,5.5-1.1,8.5l-15-9.2L145,336.2z"/>
	<path class="st12" d="M115.9,345.8c-0.4-3-0.7-5.7-1.1-8.5c-0.2-1.2,0.5-1.1,1.3-1.1c4.9,0,9.8,0,14.9,0.3L115.9,345.8z"/>
</g>
<path class="st4" d="M142.1,188.7c-0.7,0.6-1.1-0.1-1.6-0.3c-9.3-4.8-18.6-9.7-27.9-14.6c-0.8-0.3-1.4-1.1-1.4-2
	c-0.5-3.8-1-7.6-1.5-11.4c-0.2-1.2,0.7-1.1,1.3-1.2c4-0.7,7.9-1.3,11.9-1.9c6.3-1,12.6-1.9,18.9-2.9c0,4.3,0,8.6,0,12.9
	c-1.7,0.5-3.3,1-5,1.4c-0.7,0.2-1.2,0.4-0.4,1.1c1.9,1.8,3.4,3.9,5.4,5.5c0,3.8,0,7.6,0,11.4C141.7,187.5,141.5,188.2,142.1,188.7z"
	/>
<path class="st5" d="M141.7,167.4c0-4.3,0-8.6,0-12.9c3.9,0.3,7.7,1.2,11.6,1.8c6.2,1,12.3,2.1,18.5,3.1c1.4,0.2,1.8,0.7,1.6,2.2
	c-0.5,3.2-0.8,6.4-1.2,9.7c0,0.7-0.4,1.4-1.1,1.7c-9.6,5.2-19.1,10.4-28.7,15.7c-0.1,0-0.2,0.1-0.3,0.1c-0.6-0.5-0.4-1.2-0.4-1.8
	c0-3.8,0-7.6,0-11.4l8.1-9.5l-0.4-0.4L141.7,167.4z"/>
<path class="st6" d="M142.2,116c6.2,2.2,12.4,4.2,18.5,6.5c2,0.8,4.2,0.8,6.3,0.2c7.1-2,12.4-6.6,17.1-12.1c1.2-1.5,2.3-3,3.8-4.8
	c0.5,8-0.9,14.9-5.5,21.1c-0.7,1-1.5,1.8-2.3,2.7c-2.6,3-6.3,4.7-10.2,4.6c-8.5,0.3-16.9,1-25.4,1.6c-0.9,0.1-1.8,0-2.7,0.1
	c0-6,0-11.9,0-17.9C141.7,117.3,141.4,116.5,142.2,116z"/>
<path class="st7" d="M142.2,116c-0.8,0.5-0.5,1.3-0.5,2c0,6,0,11.9,0,17.9c-8.1-0.5-16.2-1-24.3-1.5c-2.4-0.2-4.8-0.4-7.2-0.5
	c-0.7,0-1.4-0.3-2-0.7c-8.3-5.5-11.9-13.4-12.4-23.1c-0.2-1.4-0.1-2.8,0.3-4.1c1.6,2.3,3.3,4.4,5.1,6.5c4.3,4.6,9.1,8.4,15.3,10.2
	c2,0.6,4.2,0.6,6.1-0.2c5.8-2.2,11.8-4.2,17.7-6.3C140.9,116,141.5,115.4,142.2,116z"/>
<path class="st8" d="M138.3,136.4c11.5-0.8,23.1-1.5,34.6-2.4c1.3-0.1,1.7,0.1,1.5,1.5c-0.9,7.4-1.8,14.8-2.5,22.2
	c-0.2,1.6-0.9,1.4-2,1.2c-10.5-1.8-21-3.6-31.6-5.4C138.3,147.8,138.3,142.1,138.3,136.4z M147.8,139.9l-0.1,0.3l13.5,8.3
	c0.4-2.7,0.7-5.2,1-7.7c0.1-0.7-0.1-0.9-0.8-0.9C156.9,139.9,152.3,139.9,147.8,139.9z"/>
<path class="st9" d="M141.7,137.4c0,5.2,0,10.3,0,15.5c-6.9,1.1-13.8,2.2-20.6,3.3c-2.8,0.4-5.6,0.8-8.4,1.3c-0.9,0.2-1.3,0.1-1.4-1
	c-0.7-6.7-1.5-13.4-2.3-20.1c-0.1-1.1,0.2-1.3,1.2-1.2C120.7,136,131.2,136.7,141.7,137.4z M121.5,148.6l13.6-8.4
	c-4.6-0.3-9.1-0.3-13.5-0.3c-0.7,0-1.3-0.1-1.1,1C120.8,143.4,121.1,145.9,121.5,148.6z"/>
<path class="st10" d="M141.7,167.4l7.8-1.9l0.4,0.4l-8.1,9.5c-2-1.6-3.6-3.7-5.4-5.5c-0.8-0.7-0.3-0.9,0.4-1.1
	C138.4,168.4,140,167.9,141.7,167.4z"/>
<path class="st11" d="M145,139.2c5,0,10.1,0,15.1,0c0.8,0,1,0.3,0.9,1c-0.4,2.7-0.7,5.5-1.1,8.5l-15-9.2L145,139.2z"/>
<path class="st12" d="M115.9,148.8c-0.4-3-0.7-5.7-1.1-8.5c-0.2-1.2,0.5-1.1,1.3-1.1c4.9,0,9.8,0,14.9,0.3L115.9,148.8z"/>
</svg>
