<?xml version="1.0" encoding="utf-8"?>
<!-- Generator: Adobe Illustrator 24.1.2, SVG Export Plug-In . SVG Version: 6.00 Build 0)  -->
<svg version="1.1" id="Ebene_1" xmlns="http://www.w3.org/2000/svg" xmlns:xlink="http://www.w3.org/1999/xlink" x="0px" y="0px"
	 viewBox="0 0 24 24" style="enable-background:new 0 0 24 24;" xml:space="preserve">
<style type="text/css">
	.st0{fill:#43A047;}
	.st1{fill:#2F5EAB;}
</style>
<path class="st0" d="M12,2.5l8.8,3.2l-1.3,11.7L12,21.5l-7.5-4.1L3.2,5.7L12,2.5 M12,4.6L6.5,17h2.1l1.1-2.8h4.7l1.1,2.8h2L12,4.6
	 M13.6,12.5h-3.2L12,8.6L13.6,12.5z"/>
<path class="st1" d="M12.1,2.7c1.6,0.6,3.2,1.1,4.8,1.7c0.5,0.2,1.1,0.2,1.6,0.1c1.9-0.5,3.2-1.7,4.4-3.2c0.3-0.4,0.6-0.8,1-1.3
	c0.1,2.1-0.2,3.9-1.4,5.5c-0.2,0.3-0.4,0.5-0.6,0.7c-0.7,0.8-1.6,1.2-2.7,1.2c-2.2,0.1-4.4,0.3-6.6,0.4c-0.2,0-0.5,0-0.7,0
	c0-1.6,0-3.1,0-4.7C12,3,11.9,2.8,12.1,2.7z"/>
<path class="st1" d="M12.1,2.7C11.9,2.8,12,3,12,3.2c0,1.6,0,3.1,0,4.7C9.9,7.7,7.7,7.6,5.6,7.4C5,7.4,4.4,7.4,3.8,7.3
	c-0.2,0-0.4-0.1-0.5-0.2C1.1,5.7,0.1,3.6,0,1.1C0,0.8,0,0.4,0.1,0.1C0.5,0.7,1,1.2,1.5,1.8c1.1,1.2,2.4,2.2,4,2.7
	C6,4.6,6.5,4.6,7,4.4c1.5-0.6,3.1-1.1,4.6-1.6C11.8,2.7,11.9,2.5,12.1,2.7z"/>
</svg>
